<svg width="80" height="80" viewBox="0 0 80 80" fill="none" xmlns="http://www.w3.org/2000/svg">
<g clip-path="url(#clip0)">
<path d="M39.9334 0.607666L0.605469 39.8086L39.9334 79.1907L79.0808 39.8086L39.9334 0.607666Z" fill="#019833"/>
<path d="M39.9265 4.20733V0.898071L0.86348 39.8157H4.21072L39.9265 4.20733Z" fill="#66FE98"/>
<path d="M39.9265 4.20733V0.898071L79.111 39.8157H75.4889L39.9265 4.20733Z" fill="#45FE02"/>
<path d="M39.9265 75.5909V79.2544L0.86348 39.8157H4.21072L39.9265 75.5909Z" fill="#017D17"/>
<path d="M39.9265 75.5909V79.2544L79.111 39.8157H75.4889L39.9265 75.5909Z" fill="#005D04"/>
<path d="M20.3038 71.7793H12.7315L9.77431 68.8974V13.8677H7.42723L5.41789 11.8556V5.70428L7.49945 3.44653H33.9819L36.3629 5.83035V11.6688L34.3844 14.0803H32.3835V32.682L51.2121 14.0803H50.1609L47.971 11.7186V5.52778L50.1226 3.55268H76.8532L78.9687 5.67097V11.5262L20.3038 71.7793Z" fill="black"/>
<path d="M39.9265 79.7952L0 39.8157L39.9265 0L79.6887 39.8157L39.9265 79.7952ZM1.22303 39.8157L39.9265 78.5712L78.4651 39.8157L39.9265 1.2249L1.22303 39.8157Z" fill="black"/>
<path d="M33.642 7.07925L34.8183 6.3194L33.6165 5.07178H8.14193L6.84761 6.36796V11.2707L8.28263 12.7076L8.96714 11.2707L8.06691 10.3689V6.91271L8.74209 6.31162L32.7931 6.34119L33.642 7.07925Z" fill="#FEFEFE"/>
<path d="M12.9052 11.1543V68.5345L13.7121 69.3028L13.0655 70.5246L11.3687 68.8533V12.6419L12.9052 11.1543Z" fill="#FEFEFE"/>
<path d="M8.78941 11.1543L8.28264 12.7076H11.36L13.1402 11.1543H8.78941Z" fill="#808080"/>
<path d="M51.8385 11.1741L50.7624 10.414V7.33353L51.888 6.20637H75.374L76.2746 7.40855L77.5561 6.39719L76.2369 5.19189H50.9874L49.7304 6.45042V11.3908L51.054 12.5886L51.8385 11.1741ZM30.6291 36.3427L28.1765 42.3019L55.8646 14.5015L55.7292 11.1384L30.6291 36.3427Z" fill="#FEFEFE"/>
<path d="M33.5866 7.05708L34.8184 6.31934V11.1542L33.4123 12.5621H30.6798L30.6291 36.3427L28.1858 42.2882V11.1542H32.749L33.5978 10.4635L33.5866 7.05708Z" fill="#808080"/>
<path d="M76.1911 7.07301L77.5561 6.39722V10.8122L19.4266 70.5245H13.0655L13.6862 69.351L18.5718 69.3513L76.1995 9.7678L76.1911 7.07301Z" fill="#808080"/>
<path d="M55.7292 11.1384L54.3135 12.5607L51.054 12.5887L51.85 11.1599L55.7292 11.1384Z" fill="#808080"/>
<path d="M51.6648 6.16028L50.7651 7.06082V10.3679L51.553 11.1567H55.7155V14.352L28.1793 42.3001V11.1962H32.7555L33.6943 10.2562V6.90954L32.8277 6.23903H8.74491L7.95705 7.02814V10.4467L8.75798 11.2488H12.9469V68.5257L13.7348 69.3145H18.4949L76.2005 9.69055V7.06082L75.3009 6.16028H51.6648Z" fill="#CCCCCC"/>
<path d="M18.5273 69.3908H13.7033L12.871 68.5571V11.3248H8.72654L7.88109 10.4781V6.99636L8.71346 6.16305H32.8538L33.7706 6.87216V10.2876L32.7872 11.2722H28.2552V42.1145L55.6395 14.3206V11.2329H51.5216L50.6892 10.3993V7.02935L51.633 6.08398H75.3323L76.2764 7.02935V9.72134L76.2552 9.74344L18.5273 69.3908ZM13.7665 69.2385H18.4629L76.1245 9.66002V7.09223L75.2694 6.2362H51.6962L50.8411 7.09223V10.3364L51.5844 11.0807H55.7917V14.3831L55.77 14.4052L28.1033 42.4855V11.1202H32.724L33.6184 10.2244V6.94686L32.8019 6.31496H8.77634L8.03299 7.05955V10.4152L8.78973 11.1729H13.0229V68.4939L13.7665 69.2385Z" fill="#808080"/>
<path d="M41.8883 44.7686C41.8444 44.7778 41.8036 44.7982 41.77 44.8278L40.654 45.7874C40.6207 45.8178 40.5958 45.8563 40.5818 45.8992L39.4655 49.0288C39.4491 49.0748 39.4459 49.1245 39.4564 49.1721C39.4668 49.2198 39.4905 49.2636 39.5247 49.2984L40.3782 50.1529C40.4276 50.2004 40.4937 50.2264 40.5622 50.2254H44.009C44.0774 50.2265 44.1435 50.2004 44.1927 50.1529L45.0923 49.2458C45.1234 49.2147 45.1458 49.1761 45.158 49.1341L46.1167 45.8401C46.1297 45.7954 46.1305 45.748 46.1189 45.703C46.1074 45.6579 46.0839 45.6168 46.0511 45.5839L45.309 44.8408C45.2846 44.8173 45.2558 44.7988 45.2243 44.7864C45.1928 44.774 45.1592 44.768 45.1253 44.7686H41.9409C41.9234 44.7667 41.9057 44.7667 41.8883 44.7686ZM35.5723 53.5913C35.5249 53.6015 35.4813 53.6248 35.4465 53.6586C35.4117 53.6923 35.387 53.7351 35.3753 53.7822L34.9485 55.4783C34.939 55.5164 34.9382 55.5561 34.9463 55.5945C34.9543 55.6329 34.971 55.6689 34.995 55.6999C35.019 55.7309 35.0497 55.7561 35.0848 55.7735C35.12 55.791 35.1586 55.8002 35.1978 55.8005H37.2268L32.1974 70.1787C32.1843 70.2175 32.1806 70.2589 32.1866 70.2994C32.1925 70.3399 32.208 70.3784 32.2317 70.4117C32.2554 70.4451 32.2867 70.4724 32.323 70.4914C32.3593 70.5103 32.3995 70.5204 32.4405 70.5208H39.7609C39.816 70.5215 39.8699 70.5047 39.9148 70.4727C39.9597 70.4408 39.9932 70.3954 40.0106 70.3431L40.49 68.7982C40.5018 68.7593 40.5044 68.7181 40.4974 68.6781C40.4904 68.638 40.4741 68.6001 40.4498 68.5675C40.4255 68.5349 40.3939 68.5084 40.3575 68.4902C40.3211 68.4721 40.281 68.4627 40.2403 68.4629H38.5858L43.5627 53.9334C43.5757 53.8946 43.5794 53.8533 43.5735 53.8128C43.5675 53.7723 43.552 53.7338 43.5283 53.7004C43.5046 53.667 43.4733 53.6398 43.437 53.6208C43.4007 53.6018 43.3605 53.5917 43.3195 53.5913H35.6246C35.6072 53.5898 35.5897 53.5898 35.5723 53.5913ZM58.8672 53.6439C58.8108 53.6556 58.7599 53.6858 58.7225 53.7295L57.1994 55.4519H54.7767L53.1614 53.7756C53.1376 53.7509 53.1091 53.7311 53.0776 53.7175C53.046 53.704 53.0121 53.6968 52.9777 53.6965H47.1935C47.1403 53.6966 47.0885 53.7131 47.045 53.7437C47.0015 53.7742 46.9684 53.8174 46.9504 53.8674L46.4187 55.4587C46.4057 55.4975 46.4021 55.5387 46.4082 55.5791C46.4142 55.6196 46.4296 55.658 46.4533 55.6913C46.477 55.7246 46.5081 55.7518 46.5443 55.7708C46.5805 55.7898 46.6206 55.8 46.6615 55.8005H48.2111L43.3918 70.0209C43.3788 70.0597 43.3752 70.101 43.3813 70.1414C43.3873 70.1819 43.4028 70.2203 43.4265 70.2537C43.4502 70.287 43.4814 70.3143 43.5176 70.3333C43.5538 70.3523 43.594 70.3625 43.6349 70.363H49.7933C49.8465 70.3629 49.8983 70.3464 49.9418 70.3158C49.9853 70.2853 50.0183 70.2421 50.0364 70.1921L50.509 68.8047C50.522 68.766 50.5256 68.7247 50.5196 68.6843C50.5137 68.6438 50.4982 68.6054 50.4745 68.572C50.4508 68.5387 50.4196 68.5115 50.3834 68.4925C50.3472 68.4735 50.307 68.4634 50.2662 68.4629H49.1894L52.2621 58.7786H57.8232L54.3172 70.0278C54.3052 70.0666 54.3026 70.1078 54.3095 70.1479C54.3164 70.188 54.3326 70.2259 54.3569 70.2586C54.3812 70.2912 54.4128 70.3177 54.4492 70.3358C54.4857 70.354 54.5259 70.3633 54.5665 70.363H60.5083C60.5588 70.3626 60.6081 70.3474 60.6502 70.3194C60.6922 70.2913 60.7251 70.2517 60.7449 70.2052L61.2766 68.9295C61.2921 68.8906 61.298 68.8485 61.2936 68.8067C61.2892 68.765 61.2748 68.725 61.2516 68.6901C61.2283 68.6552 61.197 68.6265 61.1602 68.6064C61.1234 68.5863 61.0822 68.5754 61.0403 68.5747H59.9636L63.0889 58.726H68.3807L64.8221 70.0278C64.8102 70.0667 64.8076 70.1078 64.8145 70.1479C64.8215 70.188 64.8378 70.2259 64.8621 70.2586C64.8864 70.2912 64.918 70.3177 64.9544 70.3358C64.9909 70.354 65.0311 70.3633 65.0718 70.363H71.5978C71.6502 70.3633 71.7014 70.3477 71.7448 70.3184C71.7882 70.2891 71.8217 70.2473 71.8409 70.1987L72.3726 68.8113C72.3869 68.7721 72.3916 68.7301 72.3862 68.6888C72.3809 68.6475 72.3656 68.6081 72.3418 68.574C72.318 68.5398 72.2863 68.5119 72.2494 68.4925C72.2125 68.4732 72.1715 68.463 72.1298 68.4629H70.8361L74.7692 55.6757C74.7821 55.6359 74.7853 55.5937 74.7784 55.5524C74.7715 55.5112 74.7548 55.4722 74.7297 55.4388L73.5085 53.7952C73.4836 53.7636 73.4516 53.7382 73.4151 53.721C73.3786 53.7039 73.3387 53.6955 73.2984 53.6965H68.6304C68.5949 53.6959 68.5596 53.7026 68.5269 53.7162C68.4941 53.7298 68.4645 53.75 68.4399 53.7756L66.969 55.3927H64.3953L62.8722 53.723C62.8476 53.6975 62.818 53.6772 62.7852 53.6636C62.7524 53.65 62.7172 53.6433 62.6817 53.6439H58.9195C58.9021 53.6424 58.8846 53.6424 58.8672 53.6439Z" fill="#CCCCCC"/>
<path d="M39.9561 50.5912C40.1189 50.7481 40.3318 50.834 40.5479 50.834L40.5622 50.8337H43.9984C44.2294 50.8408 44.4479 50.7518 44.6251 50.5815L45.5225 49.676C45.6265 49.572 45.7027 49.4422 45.7423 49.304L46.7007 46.0106C46.7444 45.8613 46.747 45.703 46.7084 45.5522C46.6698 45.4015 46.5913 45.2639 46.4812 45.154L45.7314 44.4029C45.6515 44.3242 45.5568 44.2622 45.4527 44.2205C45.3487 44.1788 45.2374 44.1583 45.1253 44.16H41.9626C41.9174 44.1575 41.872 44.1585 41.8269 44.1632L41.7631 44.1731C41.6168 44.2039 41.4802 44.2721 41.3734 44.3661L40.2571 45.3261L40.2444 45.3376C40.1357 45.4366 40.0539 45.5618 40.0065 45.7009L38.8928 48.8234C38.8382 48.978 38.8281 49.1447 38.8637 49.3047C38.8993 49.4647 38.9792 49.6115 39.0942 49.7283L39.9561 50.5912ZM44.9846 45.3769L45.4749 45.8678L44.5983 48.8797L43.868 49.6169L40.7029 49.6172L40.1124 49.0257L41.1262 46.1837L42.0644 45.3769H44.9846Z" fill="black"/>
<path d="M75.2181 55.0758L73.9969 53.4322L73.986 53.4182C73.9035 53.3139 73.7982 53.2299 73.6781 53.1727C73.558 53.1155 73.4264 53.0866 73.2934 53.0883H68.6403C68.5215 53.0858 68.4035 53.108 68.2938 53.1535C68.184 53.1989 68.0848 53.2666 68.0025 53.3522L66.7001 54.7844H64.664L63.3217 53.313L63.3093 53.2996C63.2275 53.216 63.1299 53.1496 63.0222 53.1043C62.9144 53.0589 62.7986 53.0356 62.6817 53.0357H58.9413C58.8961 53.0331 58.8507 53.0342 58.8056 53.0388L58.7427 53.0484C58.558 53.0867 58.3909 53.1843 58.2668 53.3264L56.9252 54.8436H55.0353L53.5988 53.3525C53.5179 53.2696 53.4214 53.2035 53.3148 53.1581C53.2082 53.1127 53.0936 53.089 52.9778 53.0883H47.1916C47.0139 53.0892 46.8408 53.1445 46.6954 53.2467C46.5501 53.3489 46.4395 53.4932 46.3785 53.6601L45.8419 55.2648C45.7985 55.395 45.7865 55.5337 45.807 55.6695C45.8275 55.8052 45.8799 55.9342 45.9599 56.0458C46.0399 56.1574 46.1451 56.2485 46.2671 56.3116C46.389 56.3747 46.5242 56.408 46.6615 56.4087H47.3625L42.8147 69.8282C42.7422 70.0464 42.759 70.2844 42.8615 70.4902C42.964 70.6959 43.1438 70.8528 43.3616 70.9264C43.4478 70.955 43.5375 70.9703 43.6349 70.9712H49.7952C49.9748 70.9698 50.1496 70.9131 50.2958 70.8087C50.442 70.7044 50.5526 70.5576 50.6123 70.3882L51.0861 68.998C51.1294 68.8677 51.1412 68.7291 51.1206 68.5933C51.1001 68.4576 51.0476 68.3287 50.9677 68.2172C50.8877 68.1056 50.7824 68.0146 50.6605 67.9515C50.5386 67.8884 50.4034 67.8551 50.2662 67.8543H50.0206L52.7073 59.3871H56.9961L53.7351 69.8497C53.6681 70.0696 53.6911 70.307 53.7988 70.5101C53.9066 70.7131 54.0904 70.8652 54.3101 70.9329C54.3934 70.9572 54.4797 70.9701 54.5666 70.9712H60.5136C60.6833 70.9697 60.8488 70.9185 60.9897 70.824C61.1306 70.7294 61.2407 70.5957 61.3065 70.4392L61.8425 69.1536C61.8944 69.0224 61.9134 68.8804 61.8981 68.7401C61.8828 68.5998 61.8334 68.4654 61.7544 68.3484C61.6754 68.2315 61.5691 68.1355 61.4447 68.0689C61.3203 68.0023 61.1815 67.967 61.0403 67.9661H60.795L63.534 59.3345H67.5511L64.24 69.8503C64.2008 69.9798 64.1924 70.1166 64.2154 70.2499C64.2384 70.3832 64.2922 70.5093 64.3725 70.6181C64.4528 70.727 64.5574 70.8156 64.678 70.8769C64.7986 70.9382 64.9318 70.9705 65.0671 70.9712H71.5938C71.7697 70.9711 71.9415 70.9182 72.0868 70.8192C72.2322 70.7202 72.3445 70.5798 72.409 70.4162L72.9441 69.0201C72.9918 68.889 73.0072 68.7484 72.9891 68.6101C72.9709 68.4718 72.9198 68.3399 72.8399 68.2256C72.76 68.1113 72.6538 68.0178 72.5302 67.9532C72.4066 67.8886 72.2693 67.8547 72.1298 67.8543H71.6598L75.3476 55.8643C75.3907 55.7321 75.4015 55.5915 75.379 55.4543C75.3564 55.317 75.3012 55.1873 75.2181 55.0758ZM70.0125 69.0711H71.6215L71.3594 69.7544H65.5459L69.2103 58.1177H62.6434L59.1322 69.1832H60.5118L60.2736 69.7544H55.0394L58.65 58.1703H51.8167L48.358 69.0711H49.7756L49.5427 69.7544H44.1245L49.0596 55.1919H47.1493L47.4456 54.3051H52.8268L54.518 56.0604H57.4736L59.0721 54.2525L62.5317 54.2522L64.1267 56.0013H67.2383L68.7807 54.3051H73.1294L74.1367 55.661L70.0125 69.0711Z" fill="black"/>
<path d="M40.4968 67.8926C40.4135 67.868 40.3272 67.8551 40.2403 67.8543H39.4372L44.1395 54.127C44.1829 53.9967 44.1948 53.858 44.1743 53.7222C44.1538 53.5864 44.1014 53.4575 44.0214 53.3458C43.9414 53.2342 43.8361 53.1431 43.7141 53.0801C43.5921 53.017 43.4569 52.9838 43.3195 52.983H35.6464C35.601 52.9805 35.5555 52.9815 35.5104 52.9862L35.444 52.9967C35.2854 53.0302 35.1395 53.1077 35.0229 53.2204C34.9063 53.333 34.8239 53.4762 34.7851 53.6336L34.358 55.3314C34.3028 55.5548 34.3385 55.7911 34.4572 55.9883C34.5758 56.1855 34.7678 56.3276 34.9911 56.3835C35.0571 56.3997 35.1253 56.4084 35.1978 56.4087H36.3692L31.6205 69.9854C31.5772 70.1156 31.5653 70.2543 31.5858 70.3901C31.6064 70.5258 31.6588 70.6548 31.7388 70.7663C31.8188 70.8779 31.9241 70.969 32.0461 71.032C32.168 71.095 32.3032 71.1283 32.4405 71.129H39.765C40.1398 71.129 40.4694 70.8915 40.5918 70.5233L41.0718 68.9759C41.1387 68.756 41.1158 68.5185 41.008 68.3155C40.9003 68.1125 40.7165 67.9604 40.4968 67.8926ZM32.9351 69.9122L38.084 55.1919H35.6479L35.8976 54.1999H42.828L37.7342 69.0711H39.7681L39.5072 69.9122H32.9351Z" fill="black"/>
</g>
<defs>
<clipPath id="clip0">
<rect width="79.6887" height="80" fill="white"/>
</clipPath>
</defs>
</svg>
