<svg width="80" height="80" viewBox="0 0 80 80" fill="none" xmlns="http://www.w3.org/2000/svg">
<path d="M67.5 5H12.5C9.84872 5.0029 7.30687 6.05739 5.43213 7.93213C3.55739 9.80687 2.5029 12.3487 2.5 15V65C2.5029 67.6513 3.55739 70.1931 5.43213 72.0679C7.30687 73.9426 9.84872 74.9971 12.5 75H67.5C70.1513 74.9971 72.6931 73.9426 74.5679 72.0679C76.4426 70.1931 77.4971 67.6513 77.5 65V15C77.4971 12.3487 76.4426 9.80687 74.5679 7.93213C72.6931 6.05739 70.1513 5.0029 67.5 5ZM15 40C14.482 40 13.9769 39.8391 13.5543 39.5396C13.1317 39.2401 12.8126 38.8167 12.6411 38.328C12.4695 37.8393 12.454 37.3093 12.5967 36.8114C12.7394 36.3135 13.0332 35.8722 13.4375 35.5484L23.4984 27.5L13.4375 19.4516C13.181 19.2464 12.9675 18.9927 12.809 18.7049C12.6506 18.4172 12.5504 18.1011 12.5141 17.7747C12.4778 17.4482 12.5062 17.1178 12.5976 16.8023C12.689 16.4868 12.8417 16.1924 13.0469 15.9359C13.2521 15.6794 13.5058 15.4659 13.7935 15.3074C14.0812 15.149 14.3973 15.0488 14.7238 15.0125C15.0502 14.9762 15.3806 15.0046 15.6961 15.096C16.0116 15.1875 16.306 15.3401 16.5625 15.5453L29.0625 25.5453C29.3556 25.7795 29.5923 26.0767 29.7549 26.4148C29.9175 26.7529 30.002 27.1233 30.002 27.4984C30.002 27.8736 29.9175 28.244 29.7549 28.5821C29.5923 28.9202 29.3556 29.2174 29.0625 29.4516L16.5625 39.4516C16.1191 39.8066 15.568 40 15 40ZM40 40H30C29.337 40 28.7011 39.7366 28.2322 39.2678C27.7634 38.7989 27.5 38.163 27.5 37.5C27.5 36.837 27.7634 36.2011 28.2322 35.7322C28.7011 35.2634 29.337 35 30 35H40C40.663 35 41.2989 35.2634 41.7678 35.7322C42.2366 36.2011 42.5 36.837 42.5 37.5C42.5 38.163 42.2366 38.7989 41.7678 39.2678C41.2989 39.7366 40.663 40 40 40Z" fill="black"/>
</svg>
