<svg width="80" height="80" viewBox="0 0 80 80" fill="none" xmlns="http://www.w3.org/2000/svg">
<g clip-path="url(#clip0)">
<path d="M70.8 40.2C70.7859 39.728 70.6329 39.2708 70.3601 38.8854C70.0874 38.5 69.707 38.2036 69.2667 38.0333L44.6667 30.2333L69.2333 22.4333C69.6826 22.2623 70.0711 21.9622 70.3499 21.5706C70.6287 21.1791 70.7854 20.7138 70.8 20.2333V1.26664C70.8307 1.0652 70.8081 0.859227 70.7344 0.669237C70.6607 0.479247 70.5386 0.311863 70.3802 0.183748C70.2217 0.0556334 70.0324 -0.0287446 69.8312 -0.0609865C69.63 -0.0932285 69.4239 -0.0722098 69.2333 -2.26392e-05L10.7667 18.6C10.315 18.7466 9.92073 19.0314 9.63963 19.4142C9.35852 19.797 9.20474 20.2584 9.20002 20.7333V39.7333C9.20116 40.1964 9.35068 40.647 9.62663 41.0189C9.90258 41.3909 10.2904 41.6646 10.7333 41.8L35.6 49.7L10.7333 57.5666C10.2904 57.7428 9.90888 58.0452 9.63628 58.4364C9.36368 58.8275 9.21198 59.2901 9.20002 59.7666V78.7333C9.17524 78.928 9.20145 79.1258 9.27609 79.3073C9.35073 79.4889 9.47123 79.6479 9.6258 79.7689C9.78037 79.8898 9.9637 79.9686 10.1578 79.9974C10.352 80.0262 10.5503 80.0041 10.7333 79.9333L69.2667 61.3666C69.7096 61.2313 70.0974 60.9575 70.3734 60.5856C70.6493 60.2137 70.7989 59.7631 70.8 59.3V40.2Z" fill="black"/>
</g>
<defs>
<clipPath id="clip0">
<rect width="80" height="80" fill="white"/>
</clipPath>
</defs>
</svg>
