<svg width="57" height="80" viewBox="0 0 57 80" fill="none" xmlns="http://www.w3.org/2000/svg">
<g clip-path="url(#clip0)">
<path d="M56.6327 15.6822L51.4823 73.3797L28.3311 79.7979L5.24367 73.3886L0.0986328 15.6822H56.6327Z" fill="#E44D26"/>
<path d="M28.3657 74.892L47.073 69.7057L51.4741 20.4005H28.3657V74.892Z" fill="#F16529"/>
<path d="M18.3535 34.5555H28.3656V27.4781H10.6187L10.788 29.3768L12.5276 48.8804H28.3656V41.803H19.0003L18.3535 34.5555Z" fill="#EBEBEB"/>
<path d="M19.9486 52.4193H12.8439L13.8353 63.532L28.3331 67.5564L28.3656 67.5475V60.184L28.3346 60.1922L20.4525 58.0639L19.9486 52.4193Z" fill="#EBEBEB"/>
<path d="M5.35846 0H8.95514V3.55346H12.2453V0H15.8422V10.7608H12.2456V7.15745H8.95536V10.7608H5.35868V0H5.35846Z" fill="black"/>
<path d="M20.5718 3.56853H17.4059V0H27.337V3.56853H24.1691V10.7608H20.5724V3.56853H20.5722H20.5718Z" fill="black"/>
<path d="M28.913 0H32.6633L34.9702 3.78105L37.2749 0H41.0267V10.7608H37.4447V5.42715L34.9702 9.25319H34.9081L32.4321 5.42715V10.7608H28.913V0Z" fill="black"/>
<path d="M42.8166 0H46.4144V7.20399H51.4724V10.7608H42.8164V0H42.8166Z" fill="black"/>
<path d="M28.3413 48.8804H37.0564L36.2347 58.0594L28.3411 60.1899V67.553L42.8503 63.532L42.9567 62.3362L44.6201 43.7035L44.7927 41.803H28.3413V48.8804Z" fill="white"/>
<path d="M28.3412 34.5383V34.5555H45.4366L45.5785 32.9648L45.9011 29.3768L46.0702 27.4781H28.3412V34.5385V34.5383Z" fill="white"/>
</g>
<defs>
<clipPath id="clip0">
<rect width="56.7313" height="80" fill="white"/>
</clipPath>
</defs>
</svg>
