<svg width="81" height="80" viewBox="0 0 81 80" fill="none" xmlns="http://www.w3.org/2000/svg">
<g clip-path="url(#clip0)">
<path d="M39.8166 0.0224609C19.4771 0.0224609 20.7471 8.84285 20.7471 8.84285L20.7697 17.981H40.1793V20.7246H13.0605C13.0605 20.7246 0.0453033 19.2485 0.0453033 39.7708C0.0453033 60.2938 11.4053 59.566 11.4053 59.566H18.1849V50.0425C18.1849 50.0425 17.8194 38.6825 29.3636 38.6825H48.6144C48.6144 38.6825 59.4301 38.8573 59.4301 28.2295V10.6571C59.4301 10.6571 61.0728 0.0224609 39.8166 0.0224609ZM29.1142 6.16771C29.5728 6.1673 30.0271 6.25734 30.4509 6.43267C30.8747 6.608 31.2598 6.86519 31.5841 7.18951C31.9085 7.51383 32.1656 7.89892 32.341 8.32275C32.5163 8.74658 32.6063 9.20082 32.6059 9.65948C32.6063 10.1181 32.5163 10.5724 32.341 10.9962C32.1656 11.42 31.9085 11.8051 31.5841 12.1294C31.2598 12.4538 30.8747 12.711 30.4509 12.8863C30.0271 13.0616 29.5728 13.1517 29.1142 13.1512C28.6555 13.1517 28.2013 13.0616 27.7774 12.8863C27.3536 12.711 26.9685 12.4538 26.6442 12.1294C26.3199 11.8051 26.0627 11.42 25.8874 10.9962C25.712 10.5724 25.622 10.1181 25.6224 9.65948C25.622 9.20082 25.712 8.74658 25.8874 8.32275C26.0627 7.89892 26.3199 7.51383 26.6442 7.18951C26.9685 6.86519 27.3536 6.608 27.7774 6.43267C28.2013 6.25734 28.6555 6.1673 29.1142 6.16771Z" fill="url(#paint0_linear)"/>
<path d="M40.3944 79.7258C60.7338 79.7258 59.4638 70.9054 59.4638 70.9054L59.4413 61.7675H40.0314V59.024H67.1501C67.1501 59.024 80.1653 60.5001 80.1653 39.9771C80.1653 19.4544 68.8053 20.1823 68.8053 20.1823H62.0257V29.7054C62.0257 29.7054 62.3912 41.0654 50.8471 41.0654H31.5962C31.5962 41.0654 20.7806 40.8907 20.7806 51.5187V69.0914C20.7806 69.0914 19.1382 79.7258 40.394 79.7258H40.3944ZM51.0968 73.5812C50.6381 73.5816 50.1839 73.4916 49.7601 73.3162C49.3362 73.1409 48.9511 72.8837 48.6268 72.5594C48.3025 72.2351 48.0453 71.85 47.87 71.4261C47.6946 71.0023 47.6046 70.5481 47.605 70.0894C47.6046 69.6307 47.6946 69.1764 47.8699 68.7526C48.0452 68.3287 48.3024 67.9436 48.6267 67.6192C48.951 67.2949 49.3361 67.0377 49.76 66.8623C50.1838 66.687 50.6381 66.5969 51.0968 66.5973C51.5555 66.5969 52.0097 66.6869 52.4335 66.8623C52.8573 67.0376 53.2424 67.2948 53.5668 67.6191C53.8911 67.9434 54.1483 68.3285 54.3236 68.7524C54.4989 69.1762 54.589 69.6304 54.5886 70.0891C54.589 70.5478 54.4989 71.002 54.3236 71.4258C54.1483 71.8496 53.8911 72.2347 53.5668 72.5591C53.2424 72.8834 52.8573 73.1406 52.4335 73.3159C52.0097 73.4912 51.5555 73.5813 51.0968 73.5809V73.5812Z" fill="url(#paint1_linear)"/>
</g>
<defs>
<linearGradient id="paint0_linear" x1="7.74479" y1="7.19129" x2="47.4498" y2="46.5002" gradientUnits="userSpaceOnUse">
<stop stop-color="#387EB8"/>
<stop offset="1" stop-color="#366994"/>
</linearGradient>
<linearGradient id="paint1_linear" x1="32.1159" y1="32.4332" x2="74.7544" y2="72.7408" gradientUnits="userSpaceOnUse">
<stop stop-color="#FFE052"/>
<stop offset="1" stop-color="#FFC331"/>
</linearGradient>
<clipPath id="clip0">
<rect width="80.3137" height="80" fill="white"/>
</clipPath>
</defs>
</svg>
