<svg width="80" height="80" viewBox="0 0 80 80" fill="none" xmlns="http://www.w3.org/2000/svg">
<path d="M36.6667 6.66669H43.3334V13.3334H45C46.3261 13.3334 47.5979 13.8601 48.5356 14.7978C49.4732 15.7355 50 17.0073 50 18.3334V30L48.5334 31.4667L54 40.9334C57.7 37.3 60 32.2667 60 26.6667H66.6667C66.6667 34.7334 63.1 41.9667 57.4334 46.8667L67.9 65L68.3334 72.4L62.1 68.3334L51.8667 50.5667C48.3334 52.3334 44.2667 53.3334 40 53.3334C35.7334 53.3334 31.6667 52.3334 28.1334 50.5667L17.9 68.3334L11.6667 72.4L12.1 65L31.4667 31.4667L30 30V18.3334C30 17.0073 30.5268 15.7355 31.4645 14.7978C32.4022 13.8601 33.6739 13.3334 35 13.3334H36.6667V6.66669ZM31.4667 44.7667C34.0667 46 36.9667 46.6667 40 46.6667C43.0334 46.6667 45.9334 46 48.5334 44.7667L43.6667 36.3334H43.6334C41.5667 38.3334 38.4334 38.3334 36.3667 36.3334H36.3334L31.4667 44.7667V44.7667ZM40 20C39.116 20 38.2681 20.3512 37.643 20.9763C37.0179 21.6015 36.6667 22.4493 36.6667 23.3334C36.6667 24.2174 37.0179 25.0653 37.643 25.6904C38.2681 26.3155 39.116 26.6667 40 26.6667C40.8841 26.6667 41.7319 26.3155 42.357 25.6904C42.9822 25.0653 43.3334 24.2174 43.3334 23.3334C43.3334 22.4493 42.9822 21.6015 42.357 20.9763C41.7319 20.3512 40.8841 20 40 20Z" fill="#009900"/>
</svg>
