<svg width="80" height="80" viewBox="0 0 80 80" fill="none" xmlns="http://www.w3.org/2000/svg">
<g clip-path="url(#clip0)">
<path d="M54.7067 14.7067H25.3067C18.5985 14.7031 12.1636 17.3646 7.41768 22.1055C2.67176 26.8464 0.00353974 33.2785 3.5194e-06 39.9867C-0.0035327 46.6949 2.6579 53.1297 7.39882 57.8757C12.1397 62.6216 18.5718 65.2898 25.28 65.2933H54.7067C61.4149 65.2933 67.8483 62.6285 72.5918 57.8851C77.3352 53.1417 80 46.7082 80 40C80 33.2918 77.3352 26.8583 72.5918 22.1149C67.8483 17.3715 61.4149 14.7067 54.7067 14.7067ZM54.0633 56.38H25.9533C21.6663 56.2935 17.5841 54.5298 14.5828 51.4673C11.5815 48.4049 9.90047 44.2879 9.90047 40C9.90047 35.7121 11.5815 31.5951 14.5828 28.5327C17.5841 25.4702 21.6663 23.7065 25.9533 23.62H54.0633C58.4076 23.62 62.5739 25.3457 65.6457 28.4176C68.7176 31.4894 70.4433 35.6558 70.4433 40C70.4433 44.3442 68.7176 48.5106 65.6457 51.5824C62.5739 54.6543 58.4076 56.38 54.0633 56.38Z" fill="#D61111"/>
</g>
<defs>
<clipPath id="clip0">
<rect width="80" height="80" fill="white"/>
</clipPath>
</defs>
</svg>
