<svg width="60" height="80" viewBox="0 0 60 80" fill="none" xmlns="http://www.w3.org/2000/svg">
<g clip-path="url(#clip0)">
<path d="M19.0876 61.8434C19.0876 61.8434 16.036 63.618 21.2594 64.2185C27.5875 64.9403 30.8215 64.837 37.7951 63.517C37.7951 63.517 39.6286 64.6666 42.1889 65.6624C26.5563 72.3623 6.80876 65.2742 19.0876 61.8434Z" fill="#5382A1"/>
<path d="M17.1773 53.1003C17.1773 53.1003 13.7547 55.634 18.982 56.1746C25.7417 56.8719 31.08 56.929 40.3174 55.1503C40.3174 55.1503 41.5951 56.4455 43.6041 57.154C24.7031 62.6809 3.65086 57.5898 17.1773 53.1003Z" fill="#5382A1"/>
<path d="M33.2814 38.2694C37.1334 42.7041 32.2694 46.6948 32.2694 46.6948C32.2694 46.6948 42.0499 41.6458 37.5581 35.323C33.363 29.4271 30.1457 26.4971 47.5623 16.3963C47.5623 16.3963 20.224 23.224 33.2814 38.2691" fill="#E76F00"/>
<path d="M53.957 68.3103C53.957 68.3103 56.2153 70.1709 51.4698 71.6104C42.4465 74.3441 13.9133 75.1695 5.98684 71.7193C3.13759 70.48 8.48094 68.7598 10.1616 68.3986C11.9145 68.0185 12.9163 68.0895 12.9163 68.0895C9.74753 65.8571 -7.5653 72.4726 4.12233 74.367C35.9958 79.536 62.2245 72.0396 53.957 68.3103Z" fill="#5382A1"/>
<path d="M20.5549 44.0416C20.5549 44.0416 6.04139 47.489 15.4155 48.7406C19.3734 49.2705 27.2636 49.1508 34.6132 48.5348C40.6197 48.0284 46.6509 46.951 46.6509 46.951C46.6509 46.951 44.5329 47.858 43.0007 48.9043C28.2622 52.7806 -0.209941 50.9774 7.98682 47.0123C14.9188 43.6615 20.5551 44.0416 20.5551 44.0416" fill="#5382A1"/>
<path d="M46.591 58.5947C61.5736 50.8093 54.6462 43.3276 49.8111 44.3357C48.6259 44.5822 48.0976 44.7959 48.0976 44.7959C48.0976 44.7959 48.5376 44.1068 49.3778 43.8086C58.9431 40.4456 66.2996 53.727 46.2899 58.9871C46.2899 58.9873 46.5219 58.7801 46.591 58.5947Z" fill="#5382A1"/>
<path d="M37.5581 0.0858025C37.5581 0.0858025 45.8557 8.38638 29.6883 21.1496C16.7239 31.3882 26.732 37.2259 29.683 43.8957C22.1154 37.068 16.5616 31.0574 20.2876 25.4634C25.7561 17.2514 40.9059 13.2701 37.5581 0.0855713" fill="#E76F00"/>
<path d="M22.0273 79.6913C36.4085 80.612 58.4925 79.1806 59.0155 72.3757C59.0155 72.3757 58.0102 74.9556 47.1302 77.0042C34.8555 79.314 19.7165 79.0444 10.7373 77.5639C10.7376 77.5639 12.5755 79.0853 22.0275 79.6913" fill="#5382A1"/>
</g>
<defs>
<clipPath id="clip0">
<rect width="59.1907" height="80" fill="white"/>
</clipPath>
</defs>
</svg>
