<svg width="72" height="80" viewBox="0 0 72 80" fill="none" xmlns="http://www.w3.org/2000/svg">
<g clip-path="url(#clip0)">
<path d="M64.6737 0C68.6024 0 71.7951 3.15284 71.8588 7.06723L71.8596 7.18597V72.658C71.8596 76.5867 68.706 79.7794 64.7924 79.8431L64.6737 79.8439H7.18597C3.25726 79.8439 0.0645614 76.6902 0.000842105 72.777L0 72.658V7.18597C0 3.25642 3.15368 0.0645614 7.06723 0.000842105L7.18597 0H64.6737ZM64.6737 3.99214H7.18597C5.45291 3.99214 4.03705 5.38105 3.99326 7.10372L3.99214 7.18597V72.658C3.99214 74.391 5.38105 75.8069 7.10372 75.8507L7.18597 75.8518H64.6737C66.4076 75.8518 67.8226 74.4632 67.8664 72.7405L67.8675 72.658V7.18597C67.8675 5.4254 66.4354 3.99214 64.6737 3.99214ZM17.9649 51.8989L26.9474 59.8832L17.9649 67.8678V51.8987V51.8989ZM25.9492 11.9767V34.6434C29.9354 33.346 35.5076 31.9374 40.9201 31.9374C45.8554 31.9374 48.8095 33.8779 50.4185 35.5057C53.8175 38.9443 53.8984 43.3148 53.8939 43.8978V43.9141L53.8947 67.8675H45.9105V44.0241C45.8712 42.1606 44.9729 39.922 40.9201 39.922C32.8831 39.922 23.8776 43.9239 23.6104 44.0435L23.6048 44.046L17.9649 46.601V11.9764H25.9492V11.9767ZM53.8947 11.9767C53.3558 16.5117 51.5172 20.8592 47.9065 24.9513H39.922C43.0599 20.8342 45.0302 16.5019 45.9105 11.9767H53.8947Z" fill="#430098"/>
</g>
<defs>
<clipPath id="clip0">
<rect width="71.8596" height="80" fill="white"/>
</clipPath>
</defs>
</svg>
