<svg width="78" height="80" viewBox="0 0 78 80" fill="none" xmlns="http://www.w3.org/2000/svg">
<g clip-path="url(#clip0)">
<path d="M77.2752 47.9049C76.81 46.4961 75.5915 45.5149 74.0158 45.2794C73.2727 45.1685 72.4218 45.2158 71.4149 45.4234C69.6597 45.7855 68.3576 45.9234 67.4073 45.95C70.9943 39.894 73.9109 32.9879 75.59 26.487C78.3052 15.9752 76.8543 11.1864 75.1588 9.02033C70.6718 3.287 64.1255 0.206998 56.2279 0.112755C52.0149 0.0612402 48.3164 0.893058 46.387 1.49124C44.5906 1.17427 42.6591 0.997301 40.6324 0.964574C36.8333 0.903968 33.4767 1.73215 30.6085 3.43427C29.0206 2.8973 26.4721 2.14033 23.5291 1.6573C16.6073 0.520937 11.0285 1.40639 6.94789 4.28912C2.00668 7.77942 -0.283928 13.8437 0.139709 22.3134C0.274254 25.0025 1.7785 33.1843 4.14698 40.9437C5.50819 45.4037 6.95971 49.1073 8.46122 51.9528C10.5906 55.9876 12.8691 58.3637 15.427 59.217C16.8606 59.6946 19.4655 60.0291 22.2052 57.7473C22.5524 58.1679 23.0158 58.5858 23.6306 58.974C24.4115 59.4664 25.3664 59.8688 26.32 60.1073C29.7567 60.9664 32.9758 60.7515 35.7221 59.5473C35.7391 60.0358 35.7521 60.5025 35.763 60.9055C35.7812 61.5591 35.7994 62.2 35.8233 62.7994C35.9861 66.8521 36.2618 70.0034 37.0788 72.2082C37.1236 72.3294 37.184 72.5143 37.2476 72.7103C37.6552 73.9582 38.3367 76.0473 40.0706 77.6834C41.8661 79.3782 44.0379 79.8979 46.027 79.8979C47.0246 79.8979 47.9764 79.767 48.8112 79.5882C51.787 78.9503 55.1667 77.9788 57.6115 74.4976C59.923 71.2067 61.0467 66.25 61.25 58.44C61.2764 58.2191 61.3006 58.0082 61.324 57.8073L61.3724 57.3946L61.917 57.4425L62.0573 57.4518C65.0882 57.59 68.7943 56.9473 71.0703 55.89C72.8688 55.0555 78.6321 52.0128 77.2752 47.9049Z" fill="black"/>
<path d="M72.0927 48.7037C63.0806 50.5627 62.4609 47.5115 62.4609 47.5115C71.9761 33.3924 75.9539 15.4703 72.5215 11.084C63.1567 -0.881198 46.9461 4.77759 46.6754 4.92426L46.5885 4.94001C44.8079 4.57032 42.8154 4.35032 40.5757 4.31365C36.4982 4.24698 33.4048 5.38274 31.0576 7.16274C31.0576 7.16274 2.13939 -4.75059 3.48454 22.1458C3.7706 27.8676 11.6858 65.4406 21.1264 54.0918C24.577 49.9418 27.9112 46.433 27.9112 46.433C29.567 47.533 31.5494 48.0943 33.6276 47.8927L33.7891 47.7558C33.7388 48.2709 33.7618 48.7749 33.8536 49.3715C31.4215 52.0888 32.1364 52.5658 27.2745 53.5667C22.3548 54.5806 25.2448 56.3855 27.1318 56.8576C29.4194 57.4294 34.7115 58.2397 38.2873 53.234L38.1448 53.8052C39.0976 54.5685 39.7667 58.7697 39.6545 62.5785C39.5424 66.387 39.4676 69.0018 40.2182 71.0443C40.9694 73.0867 41.7176 77.6821 48.1091 76.3127C53.4494 75.1682 56.217 72.2024 56.6021 67.2552C56.8751 63.7382 57.4936 64.2582 57.5324 61.1137L58.0285 59.6252C58.6003 54.8576 58.1194 53.3194 61.4094 54.0349L62.2094 54.1052C64.6306 54.2152 67.8003 53.7155 69.6606 52.8509C73.6661 50.9921 76.0418 47.8882 72.0921 48.7037H72.0927Z" fill="#336791"/>
<path d="M32.7503 24.7046C31.9382 24.5915 31.2027 24.6961 30.8306 24.9779C30.6215 25.1364 30.5567 25.32 30.5391 25.4464C30.4924 25.7812 30.727 26.1515 30.8712 26.3424C31.2791 26.883 31.8748 27.2546 32.4645 27.3364C32.55 27.3485 32.6351 27.354 32.7197 27.354C33.703 27.354 34.5973 26.5882 34.6761 26.023C34.7745 25.3152 33.747 24.8434 32.7503 24.7049" fill="white"/>
<path d="M59.6546 24.727C59.577 24.1722 58.5897 24.014 57.6527 24.1443C56.717 24.2746 55.8097 24.697 55.8855 25.2531C55.9461 25.6855 56.727 26.4237 57.6512 26.4237C57.7294 26.4237 57.8082 26.4185 57.8876 26.4073C58.5046 26.3219 58.9573 25.93 59.1724 25.7043C59.4997 25.36 59.6894 24.9764 59.6546 24.727Z" fill="white"/>
<path d="M75.0915 48.4924C74.7479 47.4533 73.6418 47.119 71.8042 47.4984C66.3482 48.6245 64.3942 47.8445 63.7527 47.3721C67.9936 40.9115 71.4824 33.1018 73.3645 25.8154C74.2561 22.3639 74.7485 19.1584 74.7888 16.5457C74.8333 13.6781 74.3449 11.5709 73.3376 10.2836C69.2764 5.0942 63.3158 2.31057 56.1006 2.2342C51.1403 2.17845 46.9494 3.44784 46.137 3.80481C44.4261 3.37935 42.5609 3.11814 40.5303 3.08481C36.8067 3.02451 33.5879 3.91602 30.923 5.73329C29.7655 5.30238 26.7739 4.27541 23.1155 3.68602C16.7906 2.66784 11.7645 3.43935 8.17788 5.98026C3.89819 9.01238 1.92243 14.4324 2.30515 22.0894C2.43394 24.6654 3.90182 32.5903 6.21819 40.1797C9.26728 50.1688 12.5818 55.8236 16.0691 56.9869C16.4773 57.123 16.9479 57.2181 17.467 57.2181C18.7391 57.2181 20.2988 56.6448 21.9215 54.6939C23.9008 52.3195 25.9482 50.0028 28.0612 47.7466C29.4321 48.4824 30.9382 48.8933 32.4785 48.9345C32.4815 48.9748 32.4855 49.0151 32.4891 49.0551C32.224 49.3713 31.9643 49.692 31.7103 50.0172C30.643 51.3721 30.4209 51.6542 26.9855 52.3615C26.0082 52.5633 23.4127 53.0981 23.3745 54.9175C23.3333 56.9054 26.4427 57.7403 26.797 57.8288C28.0315 58.1378 29.2209 58.2903 30.3552 58.2903C33.1136 58.2903 35.5412 57.3836 37.4812 55.6294C37.4215 62.716 37.717 69.6991 38.5679 71.8266C39.2649 73.5684 40.9673 77.8251 46.3449 77.8248C47.1339 77.8248 48.0024 77.733 48.9579 77.5281C54.5703 76.3251 57.0076 73.8445 57.9503 68.3757C58.4549 65.453 59.3206 58.4739 59.7279 54.7303C60.5873 54.9984 61.6936 55.1212 62.8897 55.1209C65.3842 55.1209 68.2627 54.5909 70.0679 53.753C72.0958 52.8112 75.7552 50.5003 75.0915 48.4924ZM61.7261 23.1954C61.7076 24.3006 61.5555 25.3039 61.3942 26.3512C61.2206 27.4775 61.0412 28.6421 60.9961 30.0557C60.9515 31.4315 61.1233 32.8618 61.2894 34.2451C61.6252 37.0391 61.9697 39.9154 60.6361 42.7536C60.4145 42.3611 60.2172 41.9554 60.0452 41.5387C59.8794 41.1369 59.5194 40.4915 59.0209 39.5981C57.0818 36.1206 52.5409 27.9769 54.8655 24.6539C55.5579 23.6648 57.3152 22.6478 61.7261 23.1954ZM56.3794 4.47208C62.8442 4.61481 67.9582 7.03329 71.5788 11.66C74.3558 15.2087 71.2979 31.3563 62.4455 45.2869C62.3564 45.1737 62.2669 45.0609 62.177 44.9484L62.0649 44.8084C64.3524 41.0306 63.9052 37.2927 63.507 33.9787C63.3433 32.6187 63.1888 31.3342 63.2282 30.1275C63.2688 28.8487 63.4379 27.7518 63.6015 26.6912C63.8024 25.3842 64.007 24.0318 63.9506 22.4375C63.9927 22.2703 64.0097 22.0727 63.9876 21.8381C63.8436 20.3094 62.0982 15.7339 58.5406 11.5927C56.5946 9.32754 53.7567 6.79269 49.8818 5.08299C51.5485 4.73754 53.8276 4.41542 56.3794 4.47208ZM20.2042 53.266C18.4164 55.4157 17.1818 55.0036 16.7758 54.8684C14.1303 53.986 11.0606 48.3945 8.35425 39.5278C6.01243 31.8557 4.64394 24.1409 4.53546 21.9775C4.19364 15.1357 5.85213 10.3675 9.46516 7.80511C15.3452 3.63541 25.0124 6.13117 28.897 7.39693C28.8412 7.45208 28.783 7.5036 28.7279 7.55966C22.3533 13.9972 22.5046 24.996 22.5203 25.6684C22.5197 25.9278 22.5415 26.2951 22.5712 26.8003C22.6809 28.6503 22.8852 32.0933 22.3397 35.9924C21.833 39.6157 22.95 43.1621 25.4036 45.7224C25.6555 45.9846 25.9201 46.2342 26.1967 46.4703C25.1045 47.64 22.7309 50.2266 20.2042 53.266ZM27.0161 44.1772C25.0385 42.1136 24.1403 39.2433 24.5515 36.3015C25.1273 32.1827 24.9149 28.5954 24.8006 26.6681C24.7846 26.3984 24.7703 26.1621 24.7621 25.9757C25.6933 25.15 30.0088 22.8378 33.0864 23.543C34.4906 23.8645 35.3464 24.8209 35.7021 26.4657C37.5433 34.9818 35.9458 38.5312 34.6621 41.3836C34.3976 41.9712 34.1476 42.5266 33.9342 43.1012L33.7688 43.5454C33.35 44.6684 32.9603 45.7127 32.7188 46.7042C30.6164 46.6981 28.5712 45.8 27.0161 44.1769V44.1772ZM27.3388 55.6621C26.7249 55.5087 26.1727 55.2424 25.8488 55.0215C26.1194 54.8942 26.6009 54.7209 27.4361 54.5487C31.4776 53.7169 32.1018 53.1297 33.4649 51.3991C33.7773 51.0021 34.1315 50.5524 34.6221 50.0045L34.6227 50.0039C35.3533 49.1857 35.6876 49.3245 36.2936 49.576C36.7849 49.7791 37.2633 50.3948 37.4573 51.0724C37.5491 51.3924 37.6521 51.9997 37.3149 52.4724C34.4676 56.459 30.3185 56.4078 27.3388 55.6621ZM48.49 75.3445C43.5458 76.4039 41.7952 73.8812 40.6415 70.9972C39.897 69.1354 39.5309 60.7397 39.7906 51.4678C39.7939 51.3445 39.7764 51.2254 39.7424 51.1133C39.7121 50.8919 39.6659 50.6729 39.6042 50.4581C39.2182 49.1091 38.2773 47.9806 37.1485 47.5127C36.7 47.3269 35.877 46.986 34.8879 47.2391C35.0988 46.37 35.4646 45.3884 35.8612 44.3257L36.0276 43.8787C36.2149 43.3748 36.45 42.8527 36.6985 42.3C38.0418 39.3157 39.8815 35.2281 37.8849 25.9939C37.137 22.5351 34.6394 20.846 30.8533 21.2384C28.5836 21.4733 26.507 22.389 25.4712 22.9142C25.2485 23.0269 25.0449 23.136 24.8545 23.2421C25.1436 19.7572 26.2358 13.2445 30.3212 9.1239C32.8936 6.52996 36.3194 5.24875 40.4933 5.31784C48.7176 5.45238 53.9915 9.67299 56.9679 13.1903C59.5327 16.2209 60.9215 19.2739 61.4758 20.9206C57.3076 20.4966 54.4727 21.3194 53.0358 23.3739C49.9094 27.843 54.7461 36.5169 57.0706 40.6857C57.497 41.4497 57.8649 42.11 57.9806 42.3906C58.7376 44.2251 59.7176 45.45 60.433 46.3439C60.6524 46.6178 60.8652 46.8836 61.027 47.1157C59.7646 47.4797 57.497 48.3206 57.7036 52.5239C57.537 54.633 56.3518 64.5075 55.7497 67.9963C54.9549 72.6054 53.2588 74.3221 48.49 75.3448V75.3445ZM69.1276 51.7275C67.8367 52.3266 65.6764 52.776 63.6242 52.8727C61.3576 52.9787 60.2036 52.6187 59.9321 52.3972C59.8049 49.7778 60.7797 49.5042 61.8115 49.2145C61.9736 49.1691 62.1318 49.1245 62.2845 49.0712C62.3794 49.1484 62.4833 49.2251 62.5973 49.3003C64.4191 50.5027 67.6685 50.6324 72.2561 49.6854L72.3064 49.6754C71.6876 50.2539 70.6288 51.0303 69.1276 51.7275Z" fill="white"/>
</g>
<defs>
<clipPath id="clip0">
<rect width="77.5758" height="80" fill="white"/>
</clipPath>
</defs>
</svg>
