<svg width="81" height="80" viewBox="0 0 81 80" fill="none" xmlns="http://www.w3.org/2000/svg">
<g clip-path="url(#clip0)">
<mask id="mask0" mask-type="alpha" maskUnits="userSpaceOnUse" x="0" y="0" width="257" height="325">
<path d="M56.9538 79.5612C57.5929 79.8104 58.2764 79.9255 58.9618 79.8991C59.6473 79.8728 60.32 79.7057 60.938 79.4082L77.4738 71.4516C78.3254 71.0416 79.044 70.3995 79.5469 69.5991C80.0497 68.7988 80.3164 67.8727 80.3163 66.9275V12.976C80.3164 12.0309 80.0497 11.1049 79.5468 10.3046C79.044 9.50432 78.3254 8.86225 77.4738 8.45226L60.9384 0.495406C60.004 0.0458008 58.953 -0.102235 57.9308 0.0717888C56.9086 0.245813 55.9658 0.733289 55.2328 1.46674L23.5771 30.3471L9.78812 19.8803C9.16613 19.4081 8.39848 19.1686 7.61836 19.2033C6.83824 19.238 6.09488 19.5447 5.51725 20.0702L1.09489 24.0932C-0.363381 25.4195 -0.364956 27.7137 1.09111 29.0422L13.0492 39.9518L1.09111 50.8611C-0.364956 52.1899 -0.363381 54.4838 1.09489 55.8104L5.51725 59.8331C6.09484 60.3586 6.83818 60.6653 7.6183 60.7001C8.39842 60.7348 9.16609 60.4954 9.78812 60.0233L23.5771 49.5562L55.2328 78.4365C55.7223 78.9268 56.3083 79.3098 56.9538 79.5612ZM60.2495 21.719L36.23 39.9518L60.2495 58.1842V21.719Z" fill="white"/>
<g clip-path="url(#clip1)">
<path d="M251.172 185.594L139.4 73.828C132.967 67.391 122.527 67.391 116.086 73.828L92.8761 97.038L122.319 126.481C129.161 124.169 137.007 125.72 142.461 131.174C147.941 136.663 149.481 144.576 147.113 151.44L175.488 179.816C182.353 177.451 190.274 178.981 195.757 184.473C203.42 192.133 203.42 204.548 195.757 212.213C188.092 219.879 175.677 219.879 168.008 212.213C162.244 206.443 160.82 197.978 163.738 190.877L137.276 164.415L137.273 234.052C139.191 235 140.943 236.253 142.461 237.762C150.124 245.422 150.124 257.838 142.461 265.509C134.796 273.171 122.375 273.171 114.721 265.509C107.058 257.838 107.058 245.423 114.721 237.763C116.558 235.926 118.74 234.471 121.142 233.482V163.196C118.736 162.214 116.553 160.758 114.721 158.915C108.915 153.117 107.519 144.598 110.494 137.469L81.4701 108.442L4.83012 185.077C-1.60988 191.52 -1.60988 201.961 4.83012 208.399L116.604 320.167C123.039 326.605 133.477 326.605 139.92 320.167L251.171 208.918C257.609 202.478 257.609 192.031 251.171 185.594" fill="#DE4C36"/>
</g>
</mask>
<g mask="url(#mask0)">
<path d="M77.5229 8.46447L60.9742 0.496596C60.0396 0.0466278 58.9882 -0.101723 57.9656 0.0720716C56.943 0.245866 55.9997 0.733214 55.2662 1.46667L1.0917 50.861C-0.36531 52.1898 -0.36342 54.4837 1.09548 55.8103L5.52067 59.833C6.09878 60.3586 6.84259 60.6654 7.62316 60.7002C8.40373 60.7349 9.17186 60.4954 9.79438 60.0232L75.0328 10.5316C77.2215 8.8714 80.3651 10.4323 80.3651 13.1794V12.9873C80.3651 12.0423 80.0983 11.1166 79.5955 10.3164C79.0927 9.51634 78.3743 8.8744 77.5229 8.46447Z" fill="#0065A9"/>
<path d="M77.5228 71.438L60.9742 79.4059C60.0395 79.8558 58.9882 80.0041 57.9656 79.8303C56.943 79.6565 55.9997 79.1692 55.2661 78.4358L1.09164 29.0415C-0.365371 27.713 -0.363481 25.4188 1.09542 24.0925L5.52061 20.0695C6.09875 19.5439 6.84258 19.2372 7.62315 19.2025C8.40373 19.1678 9.17183 19.4074 9.79431 19.8796L75.0327 69.371C77.2214 71.0311 80.365 69.4702 80.365 66.7228V66.9152C80.365 67.8602 80.0982 68.7859 79.5954 69.586C79.0926 70.3861 78.3742 71.0281 77.5228 71.438Z" fill="#007ACC"/>
<path d="M60.9222 79.4123C59.9873 79.8619 58.9359 80.01 57.9132 79.8361C56.8905 79.6621 55.9471 79.1747 55.2135 78.4412C57.0658 80.2932 60.2334 78.9814 60.2334 76.3616V3.55055C60.2334 0.930704 57.0658 -0.381107 55.2135 1.47118C55.9471 0.737657 56.8905 0.250186 57.9131 0.0761737C58.9358 -0.0978383 59.9873 0.0502074 60.9222 0.499838L77.468 8.45669C78.32 8.86639 79.0389 9.50835 79.5421 10.3087C80.0452 11.109 80.3121 12.0351 80.3121 12.9805V66.9323C80.3121 68.8614 79.2066 70.6201 77.468 71.4561L60.9222 79.4126V79.4123Z" fill="#1F9CF0"/>
<path d="M56.9538 79.5607C57.5929 79.8099 58.2764 79.9249 58.9618 79.8985C59.6473 79.8722 60.32 79.7051 60.938 79.4076L77.4735 71.4508C78.3252 71.0409 79.0438 70.3988 79.5467 69.5985C80.0497 68.7982 80.3164 67.8722 80.3163 66.927V12.9755C80.3164 12.0304 80.0497 11.1044 79.5468 10.3041C79.044 9.5038 78.3254 8.86173 77.4738 8.45174L60.9377 0.494571C60.0034 0.0450383 58.9525 -0.102958 57.9303 0.071064C56.9082 0.245086 55.9655 0.732522 55.2325 1.46591L23.5771 30.3465L9.78812 19.8798C9.16613 19.4076 8.39848 19.1681 7.61836 19.2028C6.83824 19.2375 6.09488 19.5442 5.51725 20.0697L1.09489 24.0927C-0.363381 25.419 -0.364956 27.7132 1.09111 29.0417L13.0492 39.9513L1.09111 50.8606C-0.364956 52.1894 -0.363381 54.4832 1.09489 55.8098L5.51725 59.8325C6.09484 60.3581 6.83818 60.6648 7.6183 60.6996C8.39842 60.7343 9.16609 60.4949 9.78812 60.0228L23.5771 49.5557L55.2325 78.436C55.7221 78.9262 56.3082 79.3092 56.9538 79.5607ZM60.2495 21.7182L36.23 39.9513L60.2495 58.1837V21.7185V21.7182Z" fill="url(#paint0_linear)" fill-opacity="0.25"/>
</g>
</g>
<defs>
<linearGradient id="paint0_linear" x1="40.1582" y1="0.00012207" x2="40.1582" y2="79.9022" gradientUnits="userSpaceOnUse">
<stop stop-color="white"/>
<stop offset="1" stop-color="white" stop-opacity="0"/>
</linearGradient>
<clipPath id="clip0">
<rect width="80.6299" height="80" fill="white"/>
</clipPath>
<clipPath id="clip1">
<rect x="0.00012207" y="69" width="256" height="256" fill="white"/>
</clipPath>
</defs>
</svg>
