<svg width="80" height="80" viewBox="0 0 80 80" fill="none" xmlns="http://www.w3.org/2000/svg">
<path d="M20.25 62.375L0.874969 47.125L10.5 29.25L38.125 40L20.25 62.375Z" fill="url(#paint0_linear)"/>
<path d="M80 21.375L78.5 67.625L47.75 80L29.25 68L56.25 40L44.5 14L55.125 1.25L80 21.375Z" fill="url(#paint1_linear)"/>
<path d="M80 21.375L55.625 50.125L44.5 14L55.125 1.25L80 21.375Z" fill="url(#paint2_linear)"/>
<path d="M38.5 66.375L6.5 78L11.625 60L18.25 37.75L0 31.625L11.625 0L36.625 3L61.375 31.25L38.5 66.375Z" fill="url(#paint3_linear)"/>
<path d="M15 15H65V65H15V15Z" fill="black"/>
<path d="M19.75 55.625H38.5V58.75H19.75V55.625ZM33.125 25.25V21.5H22.875V25.25H25.75V38.375H22.875V42.25H33.125V38.375H30.25V25.25H33.125ZM43.125 42.5C41.698 42.5644 40.2781 42.2632 39 41.625C37.9544 41.0481 37.0225 40.2857 36.25 39.375L39.125 36.125C39.6442 36.6954 40.232 37.1992 40.875 37.625C41.4801 37.9797 42.1742 38.1533 42.875 38.125C43.2546 38.154 43.6354 38.0894 43.9841 37.9368C44.3328 37.7843 44.6388 37.5484 44.875 37.25C45.454 36.5044 45.7227 35.564 45.625 34.625V21.25H50.25V34.75C50.2975 35.8556 50.1276 36.9598 49.75 38C49.4202 39.0553 48.8163 40.0043 48 40.75C46.5834 41.8017 44.8871 42.4106 43.125 42.5Z" fill="white"/>
<defs>
<linearGradient id="paint0_linear" x1="0.874969" y1="45.8125" x2="38.0501" y2="45.8125" gradientUnits="userSpaceOnUse">
<stop offset="0.26" stop-color="#F97A12"/>
<stop offset="0.46" stop-color="#B07B58"/>
<stop offset="0.72" stop-color="#577BAE"/>
<stop offset="0.91" stop-color="#1E7CE5"/>
<stop offset="1" stop-color="#087CFA"/>
</linearGradient>
<linearGradient id="paint1_linear" x1="29.4251" y1="28.4503" x2="95.0785" y2="43.534" gradientUnits="userSpaceOnUse">
<stop stop-color="#F97A12"/>
<stop offset="0.07" stop-color="#CB7A3E"/>
<stop offset="0.15" stop-color="#9E7B6A"/>
<stop offset="0.24" stop-color="#757B91"/>
<stop offset="0.33" stop-color="#537BB1"/>
<stop offset="0.43" stop-color="#387CCC"/>
<stop offset="0.54" stop-color="#237CE0"/>
<stop offset="0.66" stop-color="#147CEF"/>
<stop offset="0.79" stop-color="#0B7CF7"/>
<stop offset="1" stop-color="#087CFA"/>
</linearGradient>
<linearGradient id="paint2_linear" x1="72.25" y1="49.0248" x2="44.2893" y2="4.92194" gradientUnits="userSpaceOnUse">
<stop stop-color="#FE315D"/>
<stop offset="0.08" stop-color="#CB417E"/>
<stop offset="0.16" stop-color="#9E4E9B"/>
<stop offset="0.25" stop-color="#755BB4"/>
<stop offset="0.34" stop-color="#5365CA"/>
<stop offset="0.44" stop-color="#386DDB"/>
<stop offset="0.54" stop-color="#2374E9"/>
<stop offset="0.66" stop-color="#1478F3"/>
<stop offset="0.79" stop-color="#0B7BF8"/>
<stop offset="1" stop-color="#087CFA"/>
</linearGradient>
<linearGradient id="paint3_linear" x1="12.275" y1="18.7879" x2="79.5996" y2="87.7445" gradientUnits="userSpaceOnUse">
<stop stop-color="#FE315D"/>
<stop offset="0.04" stop-color="#F63462"/>
<stop offset="0.1" stop-color="#DF3A71"/>
<stop offset="0.17" stop-color="#C24383"/>
<stop offset="0.29" stop-color="#AD4A91"/>
<stop offset="0.55" stop-color="#755BB4"/>
<stop offset="0.92" stop-color="#1D76ED"/>
<stop offset="1" stop-color="#087CFA"/>
</linearGradient>
</defs>
</svg>
