<svg width="72" height="80" viewBox="0 0 72 80" fill="none" xmlns="http://www.w3.org/2000/svg">
<path d="M70.9914 23.5333C70.9908 22.1917 70.7039 21.0061 70.1236 19.9886C69.5536 18.9881 68.7 18.1494 67.555 17.4864C58.1036 12.0367 48.6431 6.60361 39.1947 1.14833C36.6475 -0.322221 34.1778 -0.26861 31.6494 1.22306C27.8875 3.44167 9.05278 14.2325 3.44028 17.4833C1.12889 18.8214 0.00416667 20.8692 0.00361111 23.5308C0 34.4906 0.00361111 45.45 0 56.41C0.000555556 57.7222 0.275278 58.8847 0.83 59.8869C1.40028 60.9178 2.26583 61.7794 3.43722 62.4575C9.05 65.7083 27.8872 76.4983 31.6483 78.7175C34.1778 80.21 36.6475 80.2633 39.1956 78.7922C48.6442 73.3367 58.1053 67.9039 67.5581 62.4542C68.7294 61.7764 69.595 60.9142 70.1653 59.8842C70.7192 58.8819 70.9944 57.7194 70.995 56.4069C70.995 56.4069 70.995 34.4933 70.9914 23.5333Z" fill="#5C8DBC"/>
<path d="M35.6061 39.8636L0.830017 59.8869C1.40029 60.9178 2.26585 61.7794 3.43724 62.4575C9.05002 65.7083 27.8872 76.4983 31.6484 78.7175C34.1778 80.21 36.6475 80.2633 39.1956 78.7922C48.6442 73.3366 58.1053 67.9039 67.5581 62.4541C68.7295 61.7764 69.595 60.9141 70.1653 59.8841L35.6061 39.8636Z" fill="#1A4674"/>
<path d="M25.3058 45.7947C27.3295 49.3275 31.1336 51.7103 35.4975 51.7103C39.8883 51.7103 43.7142 49.2972 45.7275 45.7266L35.6061 39.8636L25.3058 45.7947Z" fill="#1A4674"/>
<path d="M70.9914 23.5333C70.9909 22.1916 70.7039 21.0061 70.1236 19.9886L35.6061 39.8636L70.1653 59.8841C70.7192 58.8819 70.9945 57.7194 70.995 56.4069C70.995 56.4069 70.995 34.4933 70.9914 23.5333Z" fill="#1B598E"/>
<path d="M69.0911 41.2947H66.3906V43.9958H63.6895V41.2947H60.9892V38.5944H63.6895V35.8939H66.3906V38.5944H69.0911V41.2947Z" fill="white"/>
<path d="M59.237 41.2947H56.5367V43.9958H53.8361V41.2947H51.1356V38.5944H53.8361V35.8939H56.5367V38.5944H59.237V41.2947Z" fill="white"/>
<path d="M45.7275 45.7267C43.7141 49.2972 39.8883 51.7103 35.4975 51.7103C31.1336 51.7103 27.3294 49.3275 25.3058 45.7947C24.2892 44.022 23.7554 42.0138 23.7575 39.9703C23.7575 33.4867 29.0139 28.2306 35.4975 28.2306C39.8333 28.2306 43.6175 30.5836 45.6511 34.0803L55.9125 28.1714C51.8339 21.1308 44.2191 16.3942 35.4975 16.3942C22.4764 16.3942 11.9211 26.9497 11.9211 39.9703C11.9211 44.2419 13.0575 48.2478 15.0436 51.7031C19.1119 58.7808 26.7483 63.5467 35.4975 63.5467C44.2628 63.5467 51.9111 58.7617 55.9736 51.6631L45.7275 45.7267Z" fill="white"/>
</svg>
