<svg width="72" height="80" viewBox="0 0 256 301" fill="none" xmlns="http://www.w3.org/2000/svg">
<path d="M78.389 0.857948C76.9236 0.867386 75.4836 1.24165 74.199 1.94695C69.981 4.28495 68.434 9.70395 70.771 13.9189L80.294 31.1149C57.35 45.3099 42.147 69.5579 42.147 97.2329V102.375C37.74 97.3049 31.263 94.1039 24.026 94.1039C10.766 94.1039 0 104.87 0 118.129V192.138C0 205.396 10.767 216.163 24.026 216.163C31.263 216.163 37.74 212.961 42.146 207.891V218.258C42.146 232.235 53.583 243.671 67.56 243.671H74.008V276.594C74.008 289.854 84.775 300.62 98.034 300.62C111.293 300.62 122.059 289.853 122.059 276.594V243.671H133.215V276.594C133.215 289.854 143.982 300.62 157.241 300.62C170.5 300.62 181.266 289.853 181.266 276.594V243.671H187.715C201.691 243.671 213.128 232.235 213.128 218.258V207.891C217.534 212.961 224.012 216.163 231.249 216.163C244.508 216.163 255.274 205.396 255.274 192.138V118.129C255.274 104.87 244.508 94.1039 231.249 94.1039C224.012 94.1039 217.534 97.3049 213.128 102.375V98.1029V97.8579C213.13 97.5979 213.128 97.3899 213.128 97.2329C213.128 69.5629 197.89 45.3389 174.954 31.1429L184.504 13.9189C186.84 9.70395 185.294 4.28495 181.076 1.94695C179.791 1.24165 178.351 0.867386 176.886 0.857948C173.771 0.827948 170.714 2.46995 169.104 5.37495L159.118 23.4149C149.354 19.8119 138.73 17.8369 127.638 17.8369C116.556 17.8369 105.912 19.7909 96.156 23.3869L86.171 5.37495C84.56 2.46995 81.504 0.829948 78.389 0.857948Z" fill="white"/>
<path d="M24.026 100.362C14.132 100.362 6.25897 108.235 6.25897 118.129V192.138C6.25897 202.032 14.132 209.905 24.026 209.905C33.92 209.905 41.794 202.032 41.794 192.138V118.129C41.794 108.235 33.92 100.362 24.026 100.362V100.362ZM231.25 100.362C221.355 100.362 213.482 108.235 213.482 118.129V192.138C213.482 202.032 221.355 209.905 231.25 209.905C241.144 209.905 249.017 202.032 249.017 192.138V118.129C249.017 108.235 241.144 100.362 231.25 100.362V100.362Z" fill="#A4C639"/>
<path d="M98.034 184.818C88.14 184.818 80.266 192.691 80.266 202.586V276.594C80.266 286.488 88.14 294.361 98.034 294.361C107.928 294.361 115.801 286.488 115.801 276.594V202.586C115.801 192.691 107.928 184.818 98.034 184.818ZM157.241 184.818C147.346 184.818 139.473 192.691 139.473 202.586V276.594C139.473 286.488 147.346 294.361 157.241 294.361C167.135 294.361 175.008 286.488 175.008 276.594V202.586C175.008 192.691 167.135 184.818 157.241 184.818Z" fill="#A4C639"/>
<path d="M78.443 7.11705C78.0228 7.12211 77.6108 7.23432 77.246 7.44305C75.979 8.14505 75.563 9.60105 76.266 10.871L88.783 33.482C64.703 46.012 48.437 69.823 48.405 97.151H206.87C206.837 69.823 190.572 46.011 166.492 33.482L179.008 10.872C179.712 9.60205 179.295 8.14505 178.028 7.44305C177.663 7.23419 177.251 7.12198 176.831 7.11705C175.931 7.10705 175.08 7.55705 174.6 8.42305L161.92 31.278C151.548 26.678 139.914 24.095 127.637 24.095C115.36 24.095 103.727 26.677 93.354 31.278L80.674 8.42305C80.4577 8.02186 80.1353 7.68784 79.742 7.45751C79.3488 7.22718 78.8997 7.1094 78.444 7.11705H78.443ZM48.405 103.409V218.259C48.3996 220.776 48.8914 223.269 49.8521 225.596C50.8128 227.922 52.2236 230.036 54.0034 231.815C55.7832 233.595 57.897 235.006 60.2234 235.966C62.5498 236.927 65.0431 237.419 67.56 237.413H187.715C190.232 237.419 192.725 236.927 195.052 235.966C197.378 235.006 199.492 233.595 201.272 231.815C203.052 230.035 204.463 227.921 205.423 225.595C206.384 223.268 206.876 220.775 206.87 218.258V103.41H48.405V103.409Z" fill="#A4C639"/>
<path d="M91.068 54.923C87.451 54.923 84.456 57.917 84.456 61.534C84.456 65.152 87.451 68.146 91.068 68.146C94.686 68.146 97.68 65.152 97.68 61.534C97.68 57.917 94.686 54.923 91.068 54.923ZM164.206 54.923C160.588 54.923 157.594 57.917 157.594 61.534C157.594 65.152 160.588 68.146 164.206 68.146C167.823 68.146 170.818 65.152 170.818 61.534C170.818 57.917 167.823 54.923 164.206 54.923Z" fill="white"/>
</svg>
