<svg width="45" height="80" viewBox="0 0 45 80" fill="none" xmlns="http://www.w3.org/2000/svg">
<path d="M24.9219 70.3906C24.974 71.1719 25 71.875 25 72.5C25 74.5833 24.7526 76.3542 24.2578 77.8125C23.763 79.2708 23.1771 80 22.5 80C21.8229 80 21.237 79.2708 20.7422 77.8125C20.2474 76.3542 20 74.5833 20 72.5C20 71.8229 20.0521 71.1198 20.1562 70.3906C19.3229 69.4531 17.8906 68.0729 15.8594 66.25C13.8281 64.4271 12.0182 62.6953 10.4297 61.0547C8.84115 59.4141 7.1875 57.4219 5.46875 55.0781C3.75 52.7344 2.40885 50.0651 1.44531 47.0703C0.481771 44.0755 0 40.8854 0 37.5C0 33.9583 0.494792 30.5469 1.48438 27.2656C2.47396 23.9844 3.72396 21.1849 5.23438 18.8672C6.74479 16.5495 8.4375 14.3229 10.3125 12.1875C12.1875 10.0521 13.9323 8.29427 15.5469 6.91406C17.1615 5.53385 18.6328 4.21875 19.9609 2.96875C21.2891 1.71875 22.1354 0.729167 22.5 0C22.8646 0.729167 23.7109 1.71875 25.0391 2.96875C26.3672 4.21875 27.8385 5.53385 29.4531 6.91406C31.0677 8.29427 32.8125 10.0521 34.6875 12.1875C36.5625 14.3229 38.2552 16.5495 39.7656 18.8672C41.276 21.1849 42.526 23.9844 43.5156 27.2656C44.5052 30.5469 45 33.9583 45 37.5C45 40.8854 44.5182 44.0755 43.5547 47.0703C42.5911 50.0651 41.25 52.7344 39.5312 55.0781C37.8125 57.4219 36.1589 59.4141 34.5703 61.0547C32.9818 62.6953 31.1719 64.4271 29.1406 66.25C27.1094 68.0729 25.7031 69.4531 24.9219 70.3906Z" fill="#4A8B50"/>
</svg>
