<svg width="57" height="80" viewBox="0 0 57 80" fill="none" xmlns="http://www.w3.org/2000/svg">
<g clip-path="url(#clip0)">
<path d="M28.3311 79.7979L5.24364 73.3886L0.0986023 15.6822H56.6327L51.4823 73.3797L28.3311 79.7979Z" fill="#264DE4"/>
<path d="M47.073 69.7057L51.4741 20.4005H28.3657V74.892L47.073 69.7057Z" fill="#2965F1"/>
<path d="M11.8934 41.803L12.5276 48.8804H28.3656V41.803H11.8934Z" fill="#EBEBEB"/>
<path d="M10.6187 27.4781L11.2621 34.5555H28.3657V27.4781H10.6187Z" fill="#EBEBEB"/>
<path d="M28.3656 60.184L28.3346 60.1922L20.4525 58.0639L19.9486 52.4193H12.8439L13.8353 63.532L28.3331 67.5564L28.3656 67.5475V60.184Z" fill="#EBEBEB"/>
<path d="M13.4037 0H21.9754V3.58471H16.9884V7.16942H21.9758V10.7539H13.4037V0Z" fill="black"/>
<path d="M23.69 0H32.2619V3.11712H27.2747V3.7405H32.2619V10.9099H23.6902V7.63657H28.6775V7.01319H23.6898V0H23.69Z" fill="black"/>
<path d="M33.9765 0H42.5485V3.11712H37.5612V3.7405H42.5485V10.9099H33.9765V7.63657H38.9638V7.01319H33.9767V0H33.9765Z" fill="black"/>
<path d="M44.7927 41.803L46.0702 27.4781H28.3413V34.5555H38.314L37.67 41.803H28.3413V48.8804H37.0564L36.2347 58.0594L28.341 60.1899V67.553L42.8503 63.5319L42.9567 62.3362L44.62 43.7035L44.7927 41.803Z" fill="white"/>
</g>
<defs>
<clipPath id="clip0">
<rect width="56.7313" height="80" fill="white"/>
</clipPath>
</defs>
</svg>
