<svg width="80" height="80" viewBox="0 0 80 80" fill="none" xmlns="http://www.w3.org/2000/svg">
<path d="M40 0C17.9087 0 0 17.9084 0 40C0 62.0916 17.9087 80 40 80C62.0916 80 80 62.0916 80 40C80 17.9084 62.0916 0 40 0ZM8.595 40.4169L39.5828 71.405C22.5672 71.1831 8.81656 57.4331 8.595 40.4169V40.4169ZM47.03 70.62L9.38 32.97C12.5731 19.0075 25.0697 8.58969 40 8.58969C50.4366 8.58969 59.6828 13.6813 65.3947 21.5147L61.0456 25.3519C56.4125 18.7075 48.7144 14.3591 40 14.3591C28.9047 14.3591 19.4563 21.4066 15.8847 31.2694L48.7313 64.1153C56.7078 61.2269 62.8425 54.4934 64.8969 46.1538H51.2825V40H71.4106C71.4106 54.9306 60.9931 67.4272 47.0303 70.6197L47.03 70.62Z" fill="#744C9E"/>
</svg>
