<svg width="80" height="80" viewBox="0 0 80 80" fill="none" xmlns="http://www.w3.org/2000/svg">
<g clip-path="url(#clip0)">
<path d="M11.5584 62.6268C11.0897 63.0273 10.5191 63.29 9.91008 63.3857C9.30102 63.4814 8.67736 63.4062 8.10844 63.1687L2.05 60.6268C1.44573 60.3747 0.929077 59.9503 0.564509 59.4064C0.199942 58.8626 0.00360502 58.2234 0 57.5687L0 22.0187C0.00354379 21.3639 0.199852 20.7247 0.564423 20.1808C0.928995 19.6368 1.44568 19.2123 2.05 18.9602L8.10844 16.4602C8.67733 16.2227 9.30097 16.1475 9.91003 16.2431C10.5191 16.3387 11.0897 16.6013 11.5584 17.0018L12.9166 18.1268C12.6411 17.9288 12.3163 17.8107 11.978 17.7855C11.6397 17.7604 11.301 17.8292 10.9993 17.9844C10.6976 18.1395 10.4446 18.375 10.2683 18.6648C10.092 18.9547 9.99912 19.2876 10 19.6268V59.9603C9.99912 60.2995 10.092 60.6324 10.2683 60.9222C10.4446 61.212 10.6976 61.4475 10.9993 61.6027C11.301 61.7578 11.6397 61.8267 11.978 61.8015C12.3163 61.7764 12.6411 61.6583 12.9166 61.4603L11.5584 62.6268Z" fill="#52218A"/>
<path d="M2.05 60.6268C1.44573 60.3748 0.929077 59.9503 0.56451 59.4065C0.199942 58.8626 0.00360502 58.2234 0 57.5687L0 57.2937C0.00410629 57.6785 0.12343 58.0532 0.342572 58.3695C0.561713 58.6858 0.870616 58.9291 1.22942 59.0682C1.58821 59.2072 1.98044 59.2355 2.35548 59.1494C2.73052 59.0633 3.07116 58.8668 3.33344 58.5853L55 1.46028C55.7317 0.732231 56.6708 0.248477 57.6884 0.0754179C58.706 -0.0976407 59.7522 0.0484786 60.6834 0.49372L77.1666 8.42685C78.0156 8.83507 78.7321 9.47486 79.2334 10.2725C79.7347 11.0701 80.0004 11.9932 80 12.9353V13.1268C79.9994 12.5292 79.8293 11.944 79.5094 11.4392C79.1895 10.9344 78.733 10.5307 78.1928 10.275C77.6526 10.0193 77.051 9.92216 76.4578 9.99478C75.8645 10.0674 75.3041 10.3068 74.8416 10.6853L12.9166 61.4603L11.5584 62.6268C11.0897 63.0274 10.5191 63.2901 9.91008 63.3857C9.30102 63.4814 8.67736 63.4063 8.10844 63.1687L2.05 60.6268Z" fill="#6C33AF"/>
<path d="M2.05 18.9604C1.44568 19.2125 0.928995 19.637 0.564423 20.1809C0.199852 20.7248 0.00354379 21.364 0 22.0188L0 22.2938C0.0040448 21.909 0.123324 21.5343 0.342442 21.2179C0.561561 20.9016 0.87046 20.6582 1.22927 20.5191C1.58808 20.3801 1.98034 20.3517 2.35541 20.4378C2.73047 20.5239 3.07114 20.7204 3.33344 21.0019L55 78.1269C55.7317 78.855 56.6707 79.3388 57.6883 79.512C58.7059 79.6851 59.7522 79.539 60.6834 79.0938L77.1666 71.1604C78.0156 70.7521 78.7321 70.1124 79.2334 69.3147C79.7347 68.5171 80.0004 67.594 80 66.6519V66.4604C79.9994 67.058 79.8293 67.6432 79.5094 68.148C79.1895 68.6528 78.733 69.0565 78.1928 69.3122C77.6526 69.5679 77.051 69.6651 76.4578 69.5924C75.8645 69.5198 75.3041 69.2804 74.8416 68.9019L12.9166 18.1269L11.5584 16.9604C11.0855 16.5667 10.5129 16.3117 9.90401 16.2234C9.29509 16.1352 8.67362 16.2172 8.10844 16.4604L2.05 18.9604Z" fill="#854CC7"/>
<path d="M60.6834 79.0937C59.7522 79.5389 58.7059 79.685 57.6883 79.5119C56.6707 79.3388 55.7317 78.8549 55 78.1268C55.4107 78.5345 55.9328 78.8116 56.5006 78.9232C57.0684 79.0349 57.6565 78.9761 58.191 78.7543C58.7254 78.5325 59.1824 78.1576 59.5043 77.6767C59.8262 77.1958 59.9986 76.6305 60 76.0518V3.55185C60.0019 2.97177 59.8318 2.40415 59.5112 1.92074C59.1905 1.43733 58.7338 1.05984 58.1986 0.835979C57.6635 0.612121 57.074 0.55195 56.5046 0.663073C55.9353 0.774196 55.4117 1.05162 55 1.46028C55.7317 0.732231 56.6708 0.248477 57.6884 0.0754179C58.706 -0.0976407 59.7522 0.0484786 60.6834 0.49372L77.1666 8.41872C78.0156 8.82692 78.732 9.46666 79.2333 10.2642C79.7346 11.0618 80.0004 11.9848 80 12.9268V66.6603C80.0004 67.6024 79.7347 68.5254 79.2334 69.3231C78.7321 70.1207 78.0156 70.7605 77.1666 71.1687L60.6834 79.0937Z" fill="#B179F1"/>
<path d="M57.4084 79.4603C58.5102 79.7117 59.6646 79.5825 60.6834 79.0938L77.1666 71.1688C78.0156 70.7605 78.7321 70.1207 79.2334 69.3231C79.7347 68.5255 80.0004 67.6024 80 66.6603V12.9269C80.0004 11.9848 79.7346 11.0619 79.2333 10.2643C78.732 9.46669 78.0156 8.82695 77.1666 8.41875L60.6834 0.493753C59.5171 -0.06697 58.1789 -0.153671 56.95 0.251878C56.2151 0.498116 55.5476 0.911816 55 1.46032L28.4334 30.8438L12.9166 18.1269L11.5584 16.9603C11.1499 16.611 10.6629 16.3657 10.1391 16.2453C9.61525 16.1249 9.07006 16.1329 8.55 16.2688C8.39776 16.3024 8.24968 16.3527 8.10844 16.4188L2.05 18.9603C1.48295 19.1945 0.991522 19.5806 0.629821 20.0761C0.26812 20.5716 0.0501799 21.1573 0 21.7688L0 57.8188C0.102187 59.0653 0.89375 60.1497 2.05 60.6269L8.10844 63.1269C8.24968 63.1929 8.39776 63.2432 8.55 63.2769C9.60563 63.5525 10.7291 63.2944 11.5584 62.5853L12.9166 61.4603L28.4334 48.7438L55 78.1269C55.6622 78.788 56.4967 79.25 57.4084 79.4603ZM60 22.8603L39.3416 39.7938L60 56.7269V22.8603ZM10 28.3519L20.3416 39.7938L10 51.2353V28.3519Z" fill="url(#paint0_linear)" fill-opacity="0.25"/>
</g>
<defs>
<linearGradient id="paint0_linear" x1="40" y1="0.00159171" x2="40" y2="79.5856" gradientUnits="userSpaceOnUse">
<stop stop-color="white"/>
<stop offset="1" stop-color="white" stop-opacity="0"/>
</linearGradient>
<clipPath id="clip0">
<rect width="80" height="80" fill="white"/>
</clipPath>
</defs>
</svg>
