<svg width="35" height="35" viewBox="0 0 35 35" fill="none" xmlns="http://www.w3.org/2000/svg">
<g clip-path="url(#clip0)">
<path d="M33.0683 35.0001C34.135 35.0001 35 34.1353 35 33.0684V1.9317C35 0.864746 34.135 0 33.0683 0H1.9317C0.864609 0 0 0.864746 0 1.9317V33.0684C0 34.1353 0.864609 35.0001 1.9317 35.0001H33.0683Z" fill="white"/>
<path d="M24.1494 35.0002V21.4463H28.699L29.3801 16.1641H24.1494V12.7916C24.1494 11.2622 24.5742 10.22 26.7673 10.22L29.5644 10.2188V5.49448C29.0805 5.43008 27.4201 5.28625 25.4886 5.28625C21.4557 5.28625 18.6948 7.74788 18.6948 12.2686V16.1641H14.1335V21.4463H18.6948V35.0002H24.1494Z" fill="#4A8B50"/>
</g>
<defs>
<clipPath id="clip0">
<rect width="35" height="35" fill="white"/>
</clipPath>
</defs>
</svg>
