<svg width="32" height="32" viewBox="0 0 32 32" fill="none" xmlns="http://www.w3.org/2000/svg">
<path d="M30 0H1.25C0.558594 0 0 0.558594 0 1.25V30C0 30.6914 0.558594 31.25 1.25 31.25H30C30.6914 31.25 31.25 30.6914 31.25 30V1.25C31.25 0.558594 30.6914 0 30 0ZM9.26953 26.6289H4.63281V11.7148H9.26953V26.6289ZM6.95312 9.67578C6.42159 9.67578 5.90199 9.51816 5.46003 9.22286C5.01807 8.92755 4.67361 8.50782 4.4702 8.01674C4.26679 7.52567 4.21357 6.9853 4.31726 6.46398C4.42096 5.94265 4.67692 5.46379 5.05278 5.08793C5.42863 4.71208 5.9075 4.45612 6.42882 4.35242C6.95014 4.24872 7.49051 4.30194 7.98159 4.50535C8.47266 4.70877 8.89239 5.05323 9.1877 5.49519C9.48301 5.93714 9.64062 6.45674 9.64062 6.98828C9.63672 8.47266 8.43359 9.67578 6.95312 9.67578ZM26.6289 26.6289H21.9961V19.375C21.9961 17.6445 21.9648 15.4219 19.5859 15.4219C17.1758 15.4219 16.8047 17.3047 16.8047 19.25V26.6289H12.1758V11.7148H16.6211V13.7539H16.6836C17.3008 12.582 18.8125 11.3438 21.0703 11.3438C25.7656 11.3438 26.6289 14.4336 26.6289 18.4492V26.6289Z" fill="white"/>
</svg>
