<svg width="43" height="30" viewBox="0 0 43 30" fill="none" xmlns="http://www.w3.org/2000/svg">
<g clip-path="url(#clip0)">
<path d="M16.9333 20.5333L28.4667 14.5666L16.9333 8.54993V20.5333Z" fill="#4A8B50"/>
<path opacity="0.12" d="M16.9333 8.54993L27.05 15.2999L28.4667 14.5666L16.9333 8.54993Z" fill="#420000"/>
<path d="M42.2168 6.46667C42.2168 6.46667 41.8003 3.53333 40.5175 2.23333C38.9015 0.533333 37.0855 0.533333 36.2358 0.433333C30.2883 0 21.3417 0 21.3417 0H21.325C21.325 0 12.3785 0 6.3975 0.433333C5.5645 0.533333 3.7485 0.533333 2.11583 2.23333C0.849667 3.53333 0.433167 6.46667 0.433167 6.46667C0.433167 6.46667 0 9.93333 0 13.3833V16.6167C0 20.0667 0.433167 23.5167 0.433167 23.5167C0.433167 23.5167 0.849667 26.45 2.1325 27.75C3.7485 29.45 5.881 29.4 6.83067 29.5667C10.246 29.9 21.325 30 21.325 30C21.325 30 30.2882 29.9833 36.2525 29.55C37.0855 29.45 38.9015 29.45 40.5342 27.75C41.817 26.45 42.2335 23.5167 42.2335 23.5167C42.2335 23.5167 42.6667 20.0667 42.6667 16.6167V13.3833C42.65 9.93333 42.2168 6.46667 42.2168 6.46667ZM16.9268 20.5333V8.55L28.4555 14.5667L16.9267 20.5333H16.9268Z" fill="url(#paint0_linear)"/>
</g>
<defs>
<linearGradient id="paint0_linear" x1="21.3248" y1="0" x2="21.3248" y2="30.009" gradientUnits="userSpaceOnUse">
<stop stop-color="white"/>
<stop offset="1" stop-color="white"/>
</linearGradient>
<clipPath id="clip0">
<rect width="42.6667" height="30" fill="white"/>
</clipPath>
</defs>
</svg>
